<?xml version="1.0" encoding="UTF-8" standalone="no"?>
<!DOCTYPE svg PUBLIC "-//W3C//DTD SVG 1.1//EN"
 "http://www.w3.org/Graphics/SVG/1.1/DTD/svg11.dtd">
<!-- Generated by graphviz version 2.43.0 (0)
 -->
<!-- Title: %3 Pages: 1 -->
<svg width="2957pt" height="2922pt"
 viewBox="0.00 0.00 3000 1200" xmlns="http://www.w3.org/2000/svg" xmlns:xlink="http://www.w3.org/1999/xlink">
<g id="graph0" class="graph" transform="scale(1 1) rotate(0) translate(4 2918.32)">
<title>%3</title>
<polygon fill="white" stroke="transparent" points="-4,4 -4,-2918.32 2953.31,-2918.32 2953.31,4 -4,4"/>
<!-- 2 -->
<g id="node1" class="node">
<title>2</title>
<ellipse fill="#ADD8E6" stroke="black" cx="1475.8" cy="-1457.16" rx="18" ry="18"/>
<text text-anchor="middle" x="1475.8" y="-1452.96" font-family="Times,serif" font-size="14.00">2</text>
</g>
<!-- 1 -->
<g id="node2" class="node">
<title>1</title>
<ellipse fill="#ADD8E6" stroke="black" cx="1547.76" cy="-1459.62" rx="18" ry="18"/>
<text text-anchor="middle" x="1547.76" y="-1455.42" font-family="Times,serif" font-size="14.00">1</text>
</g>
<!-- 2&#45;&gt;1 -->
<g id="edge1" class="edge">
<title>2&#45;&gt;1</title>
<path fill="none" stroke="black" d="M1493.96,-1457.78C1501.65,-1458.04 1510.8,-1458.36 1519.36,-1458.65"/>
<polygon fill="black" stroke="black" points="1519.24,-1462.15 1529.35,-1458.99 1519.48,-1455.15 1519.24,-1462.15"/>
</g>
<!-- 4 -->
<g id="node3" class="node">
<title>4</title>
<ellipse fill="#ADD8E6" stroke="black" cx="1403.84" cy="-1454.7" rx="18" ry="18"/>
<text text-anchor="middle" x="1403.84" y="-1450.5" font-family="Times,serif" font-size="14.00">4</text>
</g>
<!-- 1&#45;&gt;4 -->
<g id="edge4" class="edge">
<title>1&#45;&gt;4</title>
<path fill="none" stroke="black" d="M1529.53,-1459C1504.98,-1458.16 1461.05,-1456.66 1432.18,-1455.67"/>
<polygon fill="black" stroke="black" points="1432.03,-1452.16 1421.92,-1455.32 1431.79,-1459.16 1432.03,-1452.16"/>
</g>
<!-- 4&#45;&gt;2 -->
<g id="edge2" class="edge">
<title>4&#45;&gt;2</title>
<path fill="none" stroke="black" d="M1422,-1455.32C1429.69,-1455.59 1438.84,-1455.9 1447.4,-1456.19"/>
<polygon fill="black" stroke="black" points="1447.28,-1459.69 1457.4,-1456.53 1447.52,-1452.69 1447.28,-1459.69"/>
</g>
<!-- 8 -->
<g id="node4" class="node">
<title>8</title>
<ellipse fill="#ADD8E6" stroke="black" cx="1331.88" cy="-1452.24" rx="18" ry="18"/>
<text text-anchor="middle" x="1331.88" y="-1448.04" font-family="Times,serif" font-size="14.00">8</text>
</g>
<!-- 8&#45;&gt;4 -->
<g id="edge3" class="edge">
<title>8&#45;&gt;4</title>
<path fill="none" stroke="black" d="M1350.04,-1452.86C1357.74,-1453.13 1366.89,-1453.44 1375.44,-1453.73"/>
<polygon fill="black" stroke="black" points="1375.32,-1457.23 1385.44,-1454.07 1375.56,-1450.23 1375.32,-1457.23"/>
</g>
<!-- 16 -->
<g id="node5" class="node">
<title>16</title>
<ellipse fill="#d53e4f" stroke="black" cx="1259.92" cy="-1449.79" rx="18.9" ry="18.9"/>
<text text-anchor="middle" x="1259.92" y="-1445.59" font-family="Times,serif" font-size="14.00">16</text>
</g>
<!-- 16&#45;&gt;8 -->
<g id="edge5" class="edge">
<title>16&#45;&gt;8</title>
<path fill="none" stroke="black" d="M1279.21,-1450.44C1286.62,-1450.7 1295.24,-1450.99 1303.34,-1451.27"/>
<polygon fill="black" stroke="black" points="1303.42,-1454.77 1313.54,-1451.62 1303.66,-1447.78 1303.42,-1454.77"/>
</g>
<!-- 5 -->
<g id="node7" class="node">
<title>5</title>
<ellipse fill="#ADD8E6" stroke="black" cx="1475.8" cy="-1169.16" rx="18" ry="18"/>
<text text-anchor="middle" x="1475.8" y="-1164.96" font-family="Times,serif" font-size="14.00">5</text>
</g>
<!-- 5&#45;&gt;16 -->
<g id="edge7" class="edge">
<title>5&#45;&gt;16</title>
<path fill="none" stroke="black" d="M1464.8,-1183.46C1429.82,-1228.93 1320.94,-1370.47 1277.79,-1426.56"/>
<polygon fill="black" stroke="black" points="1275.01,-1424.43 1271.69,-1434.49 1280.56,-1428.7 1275.01,-1424.43"/>
</g>
<!-- 10 -->
<g id="node8" class="node">
<title>10</title>
<ellipse fill="#ADD8E6" stroke="black" cx="1475.8" cy="-1097.16" rx="18.9" ry="18.9"/>
<text text-anchor="middle" x="1475.8" y="-1092.96" font-family="Times,serif" font-size="14.00">10</text>
</g>
<!-- 10&#45;&gt;5 -->
<g id="edge8" class="edge">
<title>10&#45;&gt;5</title>
<path fill="none" stroke="black" d="M1475.8,-1116.46C1475.8,-1123.87 1475.8,-1132.5 1475.8,-1140.6"/>
<polygon fill="black" stroke="black" points="1472.3,-1140.81 1475.8,-1150.81 1479.3,-1140.81 1472.3,-1140.81"/>
</g>
<!-- 20 -->
<g id="node9" class="node">
<title>20</title>
<ellipse fill="#d53e4f" stroke="black" cx="1461.05" cy="-1025.41" rx="18.9" ry="18.9"/>
<text text-anchor="middle" x="1461.05" y="-1021.21" font-family="Times,serif" font-size="14.00">20</text>
</g>
<!-- 20&#45;&gt;10 -->
<g id="edge9" class="edge">
<title>20&#45;&gt;10</title>
<path fill="none" stroke="black" d="M1464.92,-1044.26C1466.45,-1051.68 1468.23,-1060.36 1469.91,-1068.51"/>
<polygon fill="black" stroke="black" points="1466.51,-1069.35 1471.95,-1078.44 1473.36,-1067.94 1466.51,-1069.35"/>
</g>
<!-- 3 -->
<g id="node10" class="node">
<title>3</title>
<ellipse fill="#ADD8E6" stroke="black" cx="1907.55" cy="-1442.41" rx="18" ry="18"/>
<text text-anchor="middle" x="1907.55" y="-1438.21" font-family="Times,serif" font-size="14.00">3</text>
</g>
<!-- 3&#45;&gt;10 -->
<g id="edge10" class="edge">
<title>3&#45;&gt;10</title>
<path fill="none" stroke="black" d="M1893.18,-1430.92C1830.06,-1380.45 1577.02,-1178.1 1498.89,-1115.63"/>
<polygon fill="black" stroke="black" points="1500.66,-1112.56 1490.66,-1109.04 1496.28,-1118.02 1500.66,-1112.56"/>
</g>
<!-- 6 -->
<g id="node11" class="node">
<title>6</title>
<ellipse fill="#ADD8E6" stroke="black" cx="1979.5" cy="-1439.95" rx="18" ry="18"/>
<text text-anchor="middle" x="1979.5" y="-1435.75" font-family="Times,serif" font-size="14.00">6</text>
</g>
<!-- 6&#45;&gt;3 -->
<g id="edge11" class="edge">
<title>6&#45;&gt;3</title>
<path fill="none" stroke="black" d="M1961.35,-1440.57C1953.65,-1440.84 1944.5,-1441.15 1935.95,-1441.44"/>
<polygon fill="black" stroke="black" points="1935.82,-1437.94 1925.95,-1441.78 1936.06,-1444.94 1935.82,-1437.94"/>
</g>
<!-- 12 -->
<g id="node12" class="node">
<title>12</title>
<ellipse fill="#ADD8E6" stroke="black" cx="2051.46" cy="-1437.5" rx="18.9" ry="18.9"/>
<text text-anchor="middle" x="2051.46" y="-1433.3" font-family="Times,serif" font-size="14.00">12</text>
</g>
<!-- 12&#45;&gt;6 -->
<g id="edge12" class="edge">
<title>12&#45;&gt;6</title>
<path fill="none" stroke="black" d="M2032.18,-1438.15C2024.77,-1438.41 2016.14,-1438.7 2008.05,-1438.98"/>
<polygon fill="black" stroke="black" points="2007.72,-1435.49 1997.85,-1439.33 2007.96,-1442.48 2007.72,-1435.49"/>
</g>


<!-- 40 -->
<g id="node14" class="node">
<title>40</title>
<ellipse fill="#d53e4f" stroke="black" cx="1458.59" cy="-953.45" rx="18.9" ry="18.9"/>
<text text-anchor="middle" x="1458.59" y="-949.25" font-family="Times,serif" font-size="14.00">40</text>
</g>
<!-- 40&#45;&gt;20 -->
<g id="edge14" class="edge">
<title>40&#45;&gt;20</title>
<path fill="none" stroke="black" d="M1459.25,-972.74C1459.49,-979.84 1459.77,-988.05 1460.04,-995.84"/>
<polygon fill="black" stroke="black" points="1456.55,-996.2 1460.39,-1006.08 1463.54,-995.96 1456.55,-996.2"/>
</g>



<!-- 13 -->
<g id="node18" class="node">
<title>13</title>
<ellipse fill="#ADD8E6" stroke="black" cx="1896.76" cy="-1064.01" rx="18.9" ry="18.9"/>
<text text-anchor="middle" x="1896.76" y="-1059.81" font-family="Times,serif" font-size="14.00">13</text>
</g>
<!-- 13&#45;&gt;40 -->
<g id="edge18" class="edge">
<title>13&#45;&gt;40</title>
<path fill="none" stroke="black" d="M1878.21,-1059.33C1809.64,-1042.03 1570.13,-981.6 1487.15,-960.66"/>
<polygon fill="black" stroke="black" points="1487.94,-957.25 1477.39,-958.2 1486.23,-964.04 1487.94,-957.25"/>
</g>
<!-- 26 -->
<g id="node19" class="node">
<title>26</title>
<ellipse fill="#d53e4f" stroke="black" cx="1949.38" cy="-1014.87" rx="18.9" ry="18.9"/>
<text text-anchor="middle" x="1949.38" y="-1010.67" font-family="Times,serif" font-size="14.00">26</text>
</g>
<!-- 26&#45;&gt;13 -->
<g id="edge19" class="edge">
<title>26&#45;&gt;13</title>
<path fill="none" stroke="black" d="M1935.28,-1028.04C1930.09,-1032.88 1924.08,-1038.49 1918.38,-1043.82"/>
<polygon fill="black" stroke="black" points="1915.82,-1041.42 1910.9,-1050.8 1920.6,-1046.54 1915.82,-1041.42"/>
</g>
<!-- 52 -->
<g id="node20" class="node">
<title>52</title>
<ellipse fill="#d53e4f" stroke="black" cx="2002" cy="-965.72" rx="18.9" ry="18.9"/>
<text text-anchor="middle" x="2002" y="-961.52" font-family="Times,serif" font-size="14.00">52</text>
</g>
<!-- 52&#45;&gt;26 -->
<g id="edge20" class="edge">
<title>52&#45;&gt;26</title>
<path fill="none" stroke="black" d="M1987.9,-978.89C1982.71,-983.74 1976.7,-989.35 1971,-994.67"/>
<polygon fill="black" stroke="black" points="1968.44,-992.28 1963.52,-1001.66 1973.22,-997.39 1968.44,-992.28"/>
</g>

<!-- 17 -->
<g id="node23" class="node">
<title>17</title>
<ellipse fill="#d53e4f" stroke="black" cx="2179" cy="-1092.79" rx="18.9" ry="18.9"/>
<text text-anchor="middle" x="2179" y="-1088.59" font-family="Times,serif" font-size="14.00">17</text>
</g>
<!-- 17&#45;&gt;52 -->
<g id="edge23" class="edge">
<title>17&#45;&gt;52</title>
<path fill="none" stroke="black" d="M2163.6,-1081.73C2132.61,-1059.49 2062.53,-1009.18 2025.68,-982.72"/>
<polygon fill="black" stroke="black" points="2027.65,-979.83 2017.49,-976.84 2023.57,-985.52 2027.65,-979.83"/>
</g>
<!-- 34 -->
<g id="node24" class="node">
<title>34</title>
<ellipse fill="#d53e4f" stroke="black" cx="2242.93" cy="-1059.66" rx="18.9" ry="18.9"/>
<text text-anchor="middle" x="2242.93" y="-1055.46" font-family="Times,serif" font-size="14.00">34</text>
</g>
<!-- 34&#45;&gt;17 -->
<g id="edge24" class="edge">
<title>34&#45;&gt;17</title>
<path fill="none" stroke="black" d="M2225.8,-1068.54C2219.49,-1071.81 2212.2,-1075.59 2205.27,-1079.18"/>
<polygon fill="black" stroke="black" points="2203.45,-1076.18 2196.18,-1083.89 2206.67,-1082.39 2203.45,-1076.18"/>
</g>

<!-- 11 -->
<g id="node26" class="node">
<title>11</title>
<ellipse fill="#ADD8E6" stroke="black" cx="2367.94" cy="-1174.01" rx="18.75" ry="18.75"/>
<text text-anchor="middle" x="2367.94" y="-1169.81" font-family="Times,serif" font-size="14.00">11</text>
</g>
<!-- 11&#45;&gt;34 -->
<g id="edge26" class="edge">
<title>11&#45;&gt;34</title>
<path fill="none" stroke="black" d="M2354.09,-1161.33C2332.42,-1141.52 2290.36,-1103.05 2264.65,-1079.53"/>
<polygon fill="black" stroke="black" points="2266.97,-1076.91 2257.23,-1072.75 2262.25,-1082.08 2266.97,-1076.91"/>
</g>
<!-- 22 -->
<g id="node27" class="node">
<title>22</title>
<ellipse fill="#d53e4f" stroke="black" cx="2436.57" cy="-1152.23" rx="18.9" ry="18.9"/>
<text text-anchor="middle" x="2436.57" y="-1148.03" font-family="Times,serif" font-size="14.00">22</text>
</g>
<!-- 22&#45;&gt;11 -->
<g id="edge27" class="edge">
<title>22&#45;&gt;11</title>
<path fill="none" stroke="black" d="M2418.18,-1158.06C2411.22,-1160.27 2403.14,-1162.83 2395.52,-1165.25"/>
<polygon fill="black" stroke="black" points="2394.38,-1161.94 2385.91,-1168.3 2396.5,-1168.62 2394.38,-1161.94"/>
</g>

<!-- 7 -->
<g id="node29" class="node">
<title>7</title>
<ellipse fill="#ADD8E6" stroke="black" cx="2540.09" cy="-1273.66" rx="18" ry="18"/>
<text text-anchor="middle" x="2540.09" y="-1269.46" font-family="Times,serif" font-size="14.00">7</text>
</g>
<!-- 7&#45;&gt;22 -->
<g id="edge29" class="edge">
<title>7&#45;&gt;22</title>
<path fill="none" stroke="black" d="M2528.22,-1259.73C2510.47,-1238.91 2476.84,-1199.46 2455.62,-1174.58"/>
<polygon fill="black" stroke="black" points="2458.1,-1172.08 2448.95,-1166.75 2452.77,-1176.63 2458.1,-1172.08"/>
</g>
<!-- 14 -->
<g id="node30" class="node">
<title>14</title>
<ellipse fill="#d53e4f" stroke="black" cx="2611.05" cy="-1261.42" rx="18.9" ry="18.9"/>
<text text-anchor="middle" x="2611.05" y="-1257.22" font-family="Times,serif" font-size="14.00">14</text>
</g>
<!-- 14&#45;&gt;7 -->
<g id="edge30" class="edge">
<title>14&#45;&gt;7</title>
<path fill="none" stroke="black" d="M2592.03,-1264.7C2584.73,-1265.96 2576.22,-1267.43 2568.24,-1268.8"/>
<polygon fill="black" stroke="black" points="2567.44,-1265.39 2558.18,-1270.54 2568.63,-1272.29 2567.44,-1265.39"/>
</g>
<!-- 28 -->
<g id="node31" class="node">
<title>28</title>
<ellipse fill="#d53e4f" stroke="black" cx="2682" cy="-1249.19" rx="18.9" ry="18.9"/>
<text text-anchor="middle" x="2682" y="-1244.99" font-family="Times,serif" font-size="14.00">28</text>
</g>
<!-- 28&#45;&gt;14 -->
<g id="edge31" class="edge">
<title>28&#45;&gt;14</title>
<path fill="none" stroke="black" d="M2662.99,-1252.47C2655.99,-1253.68 2647.89,-1255.07 2640.2,-1256.4"/>
<polygon fill="black" stroke="black" points="2639.37,-1252.99 2630.11,-1258.14 2640.56,-1259.89 2639.37,-1252.99"/>
</g>

<!-- 9 -->
<g id="node33" class="node">
<title>9</title>
<ellipse fill="#ADD8E6" stroke="black" cx="2765" cy="-1324.63" rx="18" ry="18"/>
<text text-anchor="middle" x="2765" y="-1320.43" font-family="Times,serif" font-size="14.00">9</text>
</g>
<!-- 9&#45;&gt;28 -->
<g id="edge33" class="edge">
<title>9&#45;&gt;28</title>
<path fill="none" stroke="black" d="M2751.67,-1312.51C2738.71,-1300.73 2718.82,-1282.65 2703.61,-1268.83"/>
<polygon fill="black" stroke="black" points="2705.89,-1266.17 2696.14,-1262.04 2701.18,-1271.35 2705.89,-1266.17"/>
</g>


</g>
</svg>
